<svg id="Layer_1" data-name="Layer 1" xmlns="http://www.w3.org/2000/svg" viewBox="0 0 227.55 47.12"><defs><style>.cls-1{fill:#1659ff;}.cls-2{fill:#fff;}</style></defs><path class="cls-1" d="M77,151.93c-2.85,0-4.53-1.91-4.53-5.06V116.92c0-3.76,1.62-5.71,4.82-5.71,2.15,0,3.39,1.06,5.33,3.89l13.52,20.16h.38v-19c0-3.17,1.65-5.06,4.47-5.06s4.56,1.89,4.56,5.06v30.25c0,3.53-1.59,5.41-4.56,5.41-2.18,0-3.5-.91-5.5-3.85L81.82,127.65h-.38v19.22C81.44,150.05,79.82,151.93,77,151.93Z" transform="translate(-13.44 -106.44)"/><path class="cls-1" d="M122.89,152c-6.26,0-10.26-3.53-10.26-10.85v-16c0-3.41,1.77-5.14,4.76-5.14s4.71,1.73,4.71,5.14v13.64c0,3.88,2,5.56,4.85,5.56,3.38,0,5.44-2.3,5.44-5.76V125.12c0-3.41,1.73-5.14,4.7-5.14s4.73,1.73,4.73,5.14v21.81c0,3.18-1.82,5-4.61,5s-4.41-1.56-4.56-4.53v-1h-.47C131.15,149.46,127.83,152,122.89,152Z" transform="translate(-13.44 -106.44)"/><path class="cls-1" d="M151.14,127.8H150c-2.5,0-3.91-1.33-3.91-3.59s1.41-3.59,3.91-3.59h1.38v-3.41c0-3.23,1.65-5,4.56-5s4.55,1.79,4.55,5v3.41H163c2.5,0,3.91,1.32,3.91,3.59s-1.41,3.59-3.91,3.59h-2.35v14c0,2.53.71,3.47,2.71,3.47.82,0,1.32-.15,2.14-.15a2.45,2.45,0,0,1,2.5,2.68,3.8,3.8,0,0,1-1.79,3.26,9.64,9.64,0,0,1-5.5,1.35c-6.53,0-9.53-2.82-9.53-9.17Z" transform="translate(-13.44 -106.44)"/><path class="cls-1" d="M177.13,151.93c-3.08,0-4.61-1.88-4.61-5.17V125.15c0-3.32,1.61-5.17,4.64-5.17,2.74,0,4.29,1.52,4.5,4.38v.44h.44c1.06-3.24,3.29-5,6.32-5a4.23,4.23,0,0,1,3.06,1.06,4,4,0,0,1,1.17,3.06,3.55,3.55,0,0,1-1.14,2.88,5.39,5.39,0,0,1-3.21,1c-4.26.14-6.34,2.47-6.34,7v12.06C182,150.05,180.19,151.93,177.13,151.93Z" transform="translate(-13.44 -106.44)"/><path class="cls-1" d="M202,107.63c3,0,5.09,1.91,5.09,4.58s-2.11,4.62-5.09,4.62-5.08-1.91-5.08-4.62S199,107.63,202,107.63Zm0,44.3c-3,0-4.7-1.79-4.7-5.17V125.15c0-3.38,1.74-5.17,4.7-5.17s4.74,1.79,4.74,5.17v21.61C206.71,150.14,205,151.93,202,151.93Z" transform="translate(-13.44 -106.44)"/><path class="cls-1" d="M213.94,144.49l7.44-8.55-7.47-8.41a4.74,4.74,0,0,1-1.26-3.17,4.22,4.22,0,0,1,4.23-4.33c2.15,0,3.38.89,5,3.38l4.67,7.12H227l4.71-7.09c1.61-2.52,2.85-3.41,5-3.41a4.23,4.23,0,0,1,4.24,4.35,4.33,4.33,0,0,1-1.24,3.09l-7.43,8.47,7.11,8.17a4.71,4.71,0,0,1,1.59,3.47,4.23,4.23,0,0,1-4.18,4.35c-2.2,0-3.5-.91-5.11-3.38L227,141.44h-.44L222,148.52c-1.62,2.5-2.85,3.41-5.06,3.41a4.2,4.2,0,0,1-4.14-4.32A4.62,4.62,0,0,1,213.94,144.49Z" transform="translate(-13.44 -106.44)"/><circle class="cls-2" cx="23.56" cy="23.56" r="22"/><path class="cls-1" d="M37,106.44A23.56,23.56,0,1,0,60.56,130,23.56,23.56,0,0,0,37,106.44Zm-7.18,11.33c12.59,0,11.77,12.09,16.67,13.07,4.49.9,8.11-4.23,8.11-4.23s-1.66,9.74-8.53,9.74c-8.33,0-8.9-15.56-17.84-16a15.49,15.49,0,0,0-7.07,1.85S25.34,117.77,29.82,117.77ZM44,143.53c-10.39-.79-11.68-13.9-17.5-15.33-4.73-1.17-8.64,4.51-8.64,4.51s1.77-10.39,9.09-10.39c8.88,0,9.48,16.68,19,17.1,5.12.23,8.4-5.69,8.4-5.69C54.86,134.18,51.78,144.12,44,143.53Z" transform="translate(-13.44 -106.44)"/></svg>