<svg width="60" height="60" viewBox="0 0 60 60" fill="none" xmlns="http://www.w3.org/2000/svg">
<mask id="path-1-inside-1" fill="white">
<path fill-rule="evenodd" clip-rule="evenodd" d="M45.1331 55.9091C40.6905 58.5095 35.5193 60 30 60C24.4807 60 19.3095 58.5095 14.8669 55.9091H45.1331ZM48.4649 53.6459C46.5683 48.8668 41.0653 38.1818 29.7727 38.1818C18.6908 38.1818 13.1845 48.4718 11.1905 53.3723C4.36613 47.8733 0 39.4465 0 30C0 13.4315 13.4315 0 30 0C46.5685 0 60 13.4315 60 30C60 39.6046 55.4865 48.155 48.4649 53.6459ZM41.3636 23.6364C41.3636 29.9123 36.276 35 30 35C23.724 35 18.6364 29.9123 18.6364 23.6364C18.6364 17.3604 23.724 12.2727 30 12.2727C36.276 12.2727 41.3636 17.3604 41.3636 23.6364Z"/>
</mask>
<path fill-rule="evenodd" clip-rule="evenodd" d="M45.1331 55.9091C40.6905 58.5095 35.5193 60 30 60C24.4807 60 19.3095 58.5095 14.8669 55.9091H45.1331ZM48.4649 53.6459C46.5683 48.8668 41.0653 38.1818 29.7727 38.1818C18.6908 38.1818 13.1845 48.4718 11.1905 53.3723C4.36613 47.8733 0 39.4465 0 30C0 13.4315 13.4315 0 30 0C46.5685 0 60 13.4315 60 30C60 39.6046 55.4865 48.155 48.4649 53.6459ZM41.3636 23.6364C41.3636 29.9123 36.276 35 30 35C23.724 35 18.6364 29.9123 18.6364 23.6364C18.6364 17.3604 23.724 12.2727 30 12.2727C36.276 12.2727 41.3636 17.3604 41.3636 23.6364Z" fill="#004267"/>
<path d="M45.1331 55.9091L46.6486 58.4982L56.1969 52.9091H45.1331V55.9091ZM14.8669 55.9091V52.9091H3.80309L13.3514 58.4982L14.8669 55.9091ZM48.4649 53.6459L45.6765 54.7525L47.1551 58.4785L50.3129 56.0091L48.4649 53.6459ZM11.1905 53.3723L9.30815 55.7083L12.449 58.2392L13.9693 54.503L11.1905 53.3723ZM30 63C36.0663 63 41.7588 61.3604 46.6486 58.4982L43.6176 53.32C39.6223 55.6587 34.9723 57 30 57V63ZM13.3514 58.4982C18.2412 61.3604 23.9337 63 30 63V57C25.0277 57 20.3777 55.6587 16.3824 53.32L13.3514 58.4982ZM45.1331 52.9091H14.8669V58.9091H45.1331V52.9091ZM29.7727 41.1818C34.3575 41.1818 37.81 43.3164 40.4403 46.1592C43.1108 49.0453 44.7947 52.5306 45.6765 54.7525L51.2534 52.5393C50.2385 49.982 48.2226 45.7353 44.8443 42.0842C41.4258 38.3897 36.4805 35.1818 29.7727 35.1818V41.1818ZM13.9693 54.503C14.8968 52.2234 16.6014 48.8059 19.2537 46.0003C21.8646 43.2385 25.2712 41.1818 29.7727 41.1818V35.1818C23.1924 35.1818 18.3048 38.2701 14.8936 41.8784C11.5238 45.443 9.47816 49.6207 8.41171 52.2416L13.9693 54.503ZM-3 30C-3 40.3925 1.80743 49.6642 9.30815 55.7083L13.0728 51.0363C6.92484 46.0823 3 38.5006 3 30H-3ZM30 -3C11.7746 -3 -3 11.7746 -3 30H3C3 15.0883 15.0883 3 30 3V-3ZM63 30C63 11.7746 48.2254 -3 30 -3V3C44.9117 3 57 15.0883 57 30H63ZM50.3129 56.0091C58.0303 49.9741 63 40.5666 63 30H57C57 38.6425 52.9427 46.3358 46.6169 51.2827L50.3129 56.0091ZM30 38C37.9328 38 44.3636 31.5692 44.3636 23.6364H38.3636C38.3636 28.2555 34.6191 32 30 32V38ZM15.6364 23.6364C15.6364 31.5692 22.0672 38 30 38V32C25.3809 32 21.6364 28.2555 21.6364 23.6364H15.6364ZM30 9.27273C22.0672 9.27273 15.6364 15.7035 15.6364 23.6364H21.6364C21.6364 19.0173 25.3809 15.2727 30 15.2727V9.27273ZM44.3636 23.6364C44.3636 15.7035 37.9328 9.27273 30 9.27273V15.2727C34.6191 15.2727 38.3636 19.0173 38.3636 23.6364H44.3636Z" fill="black" mask="url(#path-1-inside-1)"/>
<path d="M42.6819 26.2216C42.6819 27.5417 42.1314 28.8314 41.2073 30.0431C40.2834 31.2547 39.0058 32.361 37.6091 33.2997C36.2143 34.2371 34.7176 34.9962 33.3712 35.5196C32.012 36.048 30.8515 36.3184 30.1188 36.3184C29.3852 36.3184 28.2093 36.0475 26.8268 35.5186C25.4575 34.9947 23.9305 34.2351 22.5058 33.297C21.079 32.3577 19.7721 31.2508 18.8265 30.0388C17.8807 28.8264 17.3182 27.5381 17.3182 26.2216C17.3182 25.7559 17.3492 25.4116 17.4021 25.162C17.4559 24.9088 17.5245 24.7916 17.5696 24.7409C17.6053 24.7008 17.6979 24.612 18.1637 24.7633C18.5447 24.8871 19.0099 25.1179 19.6032 25.4124C19.7132 25.467 19.8276 25.5237 19.9466 25.5824C20.6873 25.9474 21.5664 26.3627 22.5697 26.6961C23.2214 26.9127 23.8875 26.7951 24.5076 26.5655C25.1256 26.3367 25.7658 25.9699 26.3864 25.6092C26.4239 25.5875 26.4614 25.5657 26.4988 25.5439C27.0954 25.1969 27.6838 24.8546 28.2821 24.5908C28.9157 24.3114 29.5258 24.1364 30.1188 24.1364C31.57 24.1364 32.8746 24.7992 34.1704 25.4575L34.2293 25.4875C34.8677 25.8118 35.5179 26.1379 36.1487 26.329C36.7873 26.5224 37.4565 26.5937 38.1212 26.3588C38.9181 26.0771 39.642 25.7407 40.2628 25.4521C40.287 25.4408 40.3111 25.4296 40.335 25.4185C40.9912 25.1137 41.4936 24.886 41.8868 24.7923C42.2744 24.6999 42.3777 24.7765 42.4331 24.8425C42.5478 24.9792 42.6819 25.3462 42.6819 26.2216Z" fill="#AFDAEB" stroke="black"/>
<path d="M22.7273 28.6364C22.7273 28.6364 27.2295 29.5599 30.1484 29.5453C32.9523 29.5312 37.2728 28.6364 37.2728 28.6364" stroke="#004267" stroke-width="0.5" stroke-linecap="round"/>
<path d="M22.7273 30.9091C22.7273 30.9091 27.2295 31.8327 30.1484 31.818C32.9523 31.8039 37.2728 30.9091 37.2728 30.9091" stroke="#004267" stroke-width="0.5" stroke-linecap="round"/>
<path d="M22.7273 33.1818C22.7273 33.1818 27.2295 34.1054 30.1484 34.0907C32.9523 34.0766 37.2728 33.1818 37.2728 33.1818" stroke="#004267" stroke-width="0.5" stroke-linecap="round"/>
</svg>
