<svg width="455" height="61" viewBox="0 0 455 61" fill="none" xmlns="http://www.w3.org/2000/svg">
<path d="M103.956 47V38.376C103.956 32.128 106.112 29.136 108.752 29.136C110.38 29.136 111.48 29.972 111.48 32.216V47H116.936V31.292C116.936 27.024 114.472 24.472 110.336 24.472C107.608 24.472 105.144 26.188 103.56 29.048C102.592 25.836 100.084 24.472 97.356 24.472C94.496 24.472 92.604 25.924 90.976 28.388V24.824H85.52V47H90.976V38.86C90.976 32.26 93.088 29.136 95.772 29.136C97.4 29.136 98.5 29.972 98.5 32.216V47H103.956ZM129.226 31.688C129.93 29.62 131.514 29.136 133.054 29.136C135.078 29.136 136.926 29.928 136.926 32.392V33.36H133.23C127.642 33.36 123.77 36.22 123.77 40.62C123.77 45.02 126.718 47.352 130.502 47.352C133.67 47.352 135.782 46.076 137.322 44.184L137.894 47H142.382V33.756C142.382 26.672 138.334 24.472 133.054 24.472C128.522 24.472 125.31 26.98 124.606 30.632L129.226 31.688ZM129.49 40.532C129.49 38.552 130.942 37.672 133.274 37.672H136.926V38.112C136.926 40.972 134.286 42.688 131.778 42.688C130.238 42.688 129.49 41.588 129.49 40.532ZM157.064 24.472C152.752 24.472 149.98 27.508 149.98 30.94C149.98 34.372 152.048 35.912 154.468 36.924C157.152 38.068 160.012 38.464 160.012 40.312C160.012 41.94 158.956 42.688 157.284 42.688C155.128 42.688 153.632 41.192 152.84 39.036L148.484 41.368C149.584 44.096 152.664 47.352 157.284 47.352C162.08 47.352 165.16 43.964 165.16 39.96C165.16 35.208 160.188 34.24 157.152 33.14C155.832 32.656 155.04 31.952 155.04 30.984C155.04 29.752 156.008 29.136 157.064 29.136C158.296 29.136 159.748 29.752 160.76 31.072L164.016 28.08C162.652 25.924 160.056 24.472 157.064 24.472ZM171.698 15.848V47H177.154V36.528L184.986 47H191.674L182.214 35.032L191.102 24.824H184.37L177.154 33.536V15.848H171.698Z" fill="#004267"/>
<path d="M210.205 35.912C210.205 42.688 213.857 47.352 220.369 47.352C223.405 47.352 225.913 45.768 227.145 44.052V47H230.841V15.848H227.145V27.64C225.913 25.968 223.449 24.472 220.369 24.472C213.857 24.472 210.205 29.136 210.205 35.912ZM213.989 35.912C213.989 31.16 216.497 27.816 220.721 27.816C224.945 27.816 227.453 31.16 227.453 35.912C227.453 40.664 224.945 44.008 220.721 44.008C216.497 44.008 213.989 40.664 213.989 35.912ZM261.074 35.164C261.074 29.356 257.422 24.472 250.558 24.472C243.914 24.472 239.954 29.664 239.954 35.912C239.954 42.38 244.09 47.352 250.558 47.352C254.694 47.352 258.214 45.812 260.634 41.148L257.686 39.608C256.19 42.38 253.902 44.008 250.558 44.008C246.642 44.008 243.958 41.104 243.738 36.704H261.074V35.164ZM250.558 27.816C254.166 27.816 256.498 29.84 257.158 33.36H244.002C244.75 30.016 246.994 27.816 250.558 27.816ZM266.799 28.168H272.695V39.652C272.695 44.8 275.379 47.352 280.219 47.352C282.991 47.352 285.015 46.516 287.039 44.492L285.675 41.368C283.739 43.392 282.155 44.008 280.219 44.008C277.755 44.008 276.391 42.6 276.391 39.52V28.168H287.215V24.824H276.391V15.848L272.695 18.18V24.824H266.799V28.168ZM315.644 35.164C315.644 29.356 311.992 24.472 305.128 24.472C298.484 24.472 294.524 29.664 294.524 35.912C294.524 42.38 298.66 47.352 305.128 47.352C309.264 47.352 312.784 45.812 315.204 41.148L312.256 39.608C310.76 42.38 308.472 44.008 305.128 44.008C301.212 44.008 298.528 41.104 298.308 36.704H315.644V35.164ZM305.128 27.816C308.736 27.816 311.068 29.84 311.728 33.36H298.572C299.32 30.016 301.564 27.816 305.128 27.816ZM339.146 39.916C338.002 42.6 336.022 44.008 332.986 44.008C328.586 44.008 326.166 40.488 326.166 35.912C326.166 31.336 328.586 27.816 332.986 27.816C336.022 27.816 338.002 29.224 339.146 31.908L342.358 30.588C340.554 26.452 337.562 24.472 332.986 24.472C326.21 24.472 322.382 29.884 322.382 35.912C322.382 41.94 326.21 47.352 332.986 47.352C337.562 47.352 340.554 45.372 342.358 41.236L339.146 39.916ZM348.655 28.168H354.551V39.652C354.551 44.8 357.235 47.352 362.075 47.352C364.847 47.352 366.871 46.516 368.895 44.492L367.531 41.368C365.595 43.392 364.011 44.008 362.075 44.008C359.611 44.008 358.247 42.6 358.247 39.52V28.168H369.071V24.824H358.247V15.848L354.551 18.18V24.824H348.655V28.168ZM378.712 28.08H385.488V43.744H377.832V47H397.368V43.744H389.184V24.824H378.712V28.08ZM384.036 18.928C384.036 20.6 385.4 21.92 387.072 21.92C388.788 21.92 390.108 20.6 390.108 18.928C390.108 17.212 388.788 15.848 387.072 15.848C385.4 15.848 384.036 17.212 384.036 18.928ZM403.049 35.912C403.049 42.028 407.185 47.352 413.961 47.352C420.737 47.352 424.873 42.028 424.873 35.912C424.873 29.796 420.737 24.472 413.961 24.472C407.185 24.472 403.049 29.796 403.049 35.912ZM406.833 35.912C406.833 31.644 409.429 27.816 413.961 27.816C418.493 27.816 421.089 31.644 421.089 35.912C421.089 40.18 418.493 44.008 413.961 44.008C409.429 44.008 406.833 40.18 406.833 35.912ZM450.574 31.556C450.574 27.288 448.418 24.472 443.798 24.472C440.63 24.472 437.858 26.364 436.274 28.916V24.824H432.578V47H436.274V38.068C436.274 31.6 439.31 27.816 442.786 27.816C445.426 27.816 446.878 29.268 446.878 32.348V47H450.574V31.556Z" fill="black"/>
<mask id="path-2-inside-1" fill="white">
<path fill-rule="evenodd" clip-rule="evenodd" d="M47.1331 56.9091C42.6905 59.5095 37.5193 61 32 61C26.4807 61 21.3095 59.5095 16.8669 56.9091H47.1331ZM50.4649 54.6459C48.5683 49.8668 43.0653 39.1818 31.7727 39.1818C20.6908 39.1818 15.1845 49.4718 13.1905 54.3723C6.36613 48.8733 2 40.4465 2 31C2 14.4315 15.4315 1 32 1C48.5685 1 62 14.4315 62 31C62 40.6046 57.4865 49.155 50.4649 54.6459ZM43.3636 24.6364C43.3636 30.9123 38.276 36 32 36C25.724 36 20.6364 30.9123 20.6364 24.6364C20.6364 18.3604 25.724 13.2727 32 13.2727C38.276 13.2727 43.3636 18.3604 43.3636 24.6364Z"/>
</mask>
<path fill-rule="evenodd" clip-rule="evenodd" d="M47.1331 56.9091C42.6905 59.5095 37.5193 61 32 61C26.4807 61 21.3095 59.5095 16.8669 56.9091H47.1331ZM50.4649 54.6459C48.5683 49.8668 43.0653 39.1818 31.7727 39.1818C20.6908 39.1818 15.1845 49.4718 13.1905 54.3723C6.36613 48.8733 2 40.4465 2 31C2 14.4315 15.4315 1 32 1C48.5685 1 62 14.4315 62 31C62 40.6046 57.4865 49.155 50.4649 54.6459ZM43.3636 24.6364C43.3636 30.9123 38.276 36 32 36C25.724 36 20.6364 30.9123 20.6364 24.6364C20.6364 18.3604 25.724 13.2727 32 13.2727C38.276 13.2727 43.3636 18.3604 43.3636 24.6364Z" fill="#004267"/>
<path d="M47.1331 56.9091L48.6486 59.4982L58.1969 53.9091H47.1331V56.9091ZM16.8669 56.9091V53.9091H5.80309L15.3514 59.4982L16.8669 56.9091ZM50.4649 54.6459L47.6765 55.7525L49.1551 59.4785L52.3129 57.0091L50.4649 54.6459ZM13.1905 54.3723L11.3081 56.7083L14.449 59.2392L15.9693 55.503L13.1905 54.3723ZM32 64C38.0663 64 43.7588 62.3604 48.6486 59.4982L45.6176 54.32C41.6223 56.6587 36.9723 58 32 58V64ZM15.3514 59.4982C20.2412 62.3604 25.9337 64 32 64V58C27.0277 58 22.3777 56.6587 18.3824 54.32L15.3514 59.4982ZM47.1331 53.9091H16.8669V59.9091H47.1331V53.9091ZM31.7727 42.1818C36.3575 42.1818 39.81 44.3164 42.4403 47.1592C45.1108 50.0453 46.7947 53.5306 47.6765 55.7525L53.2534 53.5393C52.2385 50.982 50.2226 46.7353 46.8443 43.0842C43.4258 39.3897 38.4805 36.1818 31.7727 36.1818V42.1818ZM15.9693 55.503C16.8968 53.2234 18.6014 49.8059 21.2537 47.0003C23.8646 44.2385 27.2712 42.1818 31.7727 42.1818V36.1818C25.1924 36.1818 20.3048 39.2701 16.8936 42.8784C13.5238 46.443 11.4782 50.6207 10.4117 53.2416L15.9693 55.503ZM-1 31C-1 41.3925 3.80743 50.6642 11.3081 56.7083L15.0728 52.0363C8.92484 47.0823 5 39.5006 5 31H-1ZM32 -2C13.7746 -2 -1 12.7746 -1 31H5C5 16.0883 17.0883 4 32 4V-2ZM65 31C65 12.7746 50.2254 -2 32 -2V4C46.9117 4 59 16.0883 59 31H65ZM52.3129 57.0091C60.0303 50.9741 65 41.5666 65 31H59C59 39.6425 54.9427 47.3358 48.6169 52.2827L52.3129 57.0091ZM32 39C39.9328 39 46.3636 32.5692 46.3636 24.6364H40.3636C40.3636 29.2555 36.6191 33 32 33V39ZM17.6364 24.6364C17.6364 32.5692 24.0672 39 32 39V33C27.3809 33 23.6364 29.2555 23.6364 24.6364H17.6364ZM32 10.2727C24.0672 10.2727 17.6364 16.7035 17.6364 24.6364H23.6364C23.6364 20.0173 27.3809 16.2727 32 16.2727V10.2727ZM46.3636 24.6364C46.3636 16.7035 39.9328 10.2727 32 10.2727V16.2727C36.6191 16.2727 40.3636 20.0173 40.3636 24.6364H46.3636Z" fill="black" mask="url(#path-2-inside-1)"/>
<path d="M44.6819 27.2216C44.6819 28.5417 44.1314 29.8314 43.2073 31.0431C42.2834 32.2547 41.0058 33.361 39.6091 34.2997C38.2143 35.2371 36.7176 35.9962 35.3712 36.5196C34.012 37.048 32.8515 37.3184 32.1188 37.3184C31.3852 37.3184 30.2093 37.0475 28.8268 36.5186C27.4575 35.9947 25.9305 35.2351 24.5058 34.297C23.079 33.3577 21.7721 32.2508 20.8265 31.0388C19.8807 29.8264 19.3182 28.5381 19.3182 27.2216C19.3182 26.7559 19.3492 26.4116 19.4021 26.162C19.4559 25.9088 19.5245 25.7916 19.5696 25.7409C19.6053 25.7008 19.6979 25.612 20.1637 25.7633C20.5447 25.8871 21.0099 26.1179 21.6032 26.4124C21.7132 26.467 21.8276 26.5237 21.9466 26.5824C22.6873 26.9474 23.5664 27.3627 24.5697 27.6961C25.2214 27.9127 25.8875 27.7951 26.5076 27.5655C27.1256 27.3367 27.7658 26.9699 28.3864 26.6092C28.4239 26.5875 28.4614 26.5657 28.4988 26.5439C29.0954 26.1969 29.6838 25.8546 30.2821 25.5908C30.9157 25.3114 31.5258 25.1364 32.1188 25.1364C33.57 25.1364 34.8746 25.7992 36.1704 26.4575L36.2293 26.4875C36.8677 26.8118 37.5179 27.1379 38.1487 27.329C38.7873 27.5224 39.4565 27.5937 40.1212 27.3588C40.9181 27.0771 41.642 26.7407 42.2628 26.4521C42.287 26.4408 42.3111 26.4296 42.335 26.4185C42.9912 26.1137 43.4936 25.886 43.8868 25.7923C44.2744 25.6999 44.3777 25.7765 44.4331 25.8425C44.5478 25.9792 44.6819 26.3462 44.6819 27.2216Z" fill="#AFDAEB" stroke="black"/>
<path d="M24.7273 29.6364C24.7273 29.6364 29.2295 30.5599 32.1484 30.5453C34.9523 30.5312 39.2728 29.6364 39.2728 29.6364" stroke="#004267" stroke-width="0.5" stroke-linecap="round"/>
<path d="M24.7273 31.9091C24.7273 31.9091 29.2295 32.8327 32.1484 32.818C34.9523 32.8039 39.2728 31.9091 39.2728 31.9091" stroke="#004267" stroke-width="0.5" stroke-linecap="round"/>
<path d="M24.7273 34.1818C24.7273 34.1818 29.2295 35.1054 32.1484 35.0907C34.9523 35.0766 39.2728 34.1818 39.2728 34.1818" stroke="#004267" stroke-width="0.5" stroke-linecap="round"/>
</svg>
