<svg width="226" height="26" viewBox="0 0 226 26" fill="none" xmlns="http://www.w3.org/2000/svg">
<path d="M40.2472 14.54L40.3672 10.5H40.1872L37.4872 17.68L34.7872 10.5H34.6072L34.7272 14.54V21H32.4472V7.04H35.5672L37.5072 12.18H37.6472L39.6072 7.04H42.5272V21H40.2472V14.54ZM54.4594 21L53.4794 17.46H49.3394L48.3794 21H45.7394L49.6594 7.04H53.2994L57.2394 21H54.4594ZM51.4994 9.62H51.3394L49.7994 15.32H53.0394L51.4994 9.62ZM65.3116 21.24C64.1116 21.24 63.0849 21.0333 62.2316 20.62C61.3916 20.2067 60.7049 19.66 60.1716 18.98L61.7516 17.34C62.2716 17.94 62.8316 18.3867 63.4316 18.68C64.0449 18.96 64.6982 19.1 65.3916 19.1C66.1916 19.1 66.8049 18.92 67.2316 18.56C67.6582 18.2 67.8716 17.68 67.8716 17C67.8716 16.44 67.7116 16.02 67.3916 15.74C67.0716 15.4467 66.5316 15.24 65.7716 15.12L64.2916 14.88C62.9982 14.6533 62.0782 14.1867 61.5316 13.48C60.9849 12.76 60.7116 11.9133 60.7116 10.94C60.7116 9.60667 61.1449 8.58667 62.0116 7.88C62.8782 7.16 64.0782 6.8 65.6116 6.8C66.7049 6.8 67.6449 6.97333 68.4316 7.32C69.2316 7.66667 69.8716 8.14 70.3516 8.74L68.8116 10.38C68.4382 9.94 67.9916 9.59333 67.4716 9.34C66.9516 9.07333 66.3382 8.94 65.6316 8.94C64.1116 8.94 63.3516 9.56667 63.3516 10.82C63.3516 11.3533 63.5116 11.76 63.8316 12.04C64.1516 12.32 64.6982 12.5267 65.4716 12.66L66.9316 12.92C68.1449 13.1467 69.0449 13.5933 69.6316 14.26C70.2182 14.9267 70.5116 15.78 70.5116 16.82C70.5116 17.4733 70.3982 18.0733 70.1716 18.62C69.9449 19.1533 69.6116 19.62 69.1716 20.02C68.7316 20.4067 68.1849 20.7067 67.5316 20.92C66.8916 21.1333 66.1516 21.24 65.3116 21.24ZM79.0037 14.88L77.5437 16.8V21H74.9237V7.04H77.5437V13.32H77.6637L79.2837 11L82.2237 7.04H85.1837L80.8037 12.92L85.3837 21H82.4237L79.0037 14.88ZM102.908 7.04H107.248C109.061 7.04 110.408 7.64 111.288 8.84C112.181 10.04 112.628 11.7667 112.628 14.02C112.628 16.2867 112.181 18.02 111.288 19.22C110.408 20.4067 109.061 21 107.248 21H102.908V7.04ZM107.068 18.9C108.028 18.9 108.735 18.5867 109.188 17.96C109.655 17.3333 109.888 16.42 109.888 15.22V12.8C109.888 11.6133 109.655 10.7067 109.188 10.08C108.735 9.45333 108.028 9.14 107.068 9.14H105.488V18.9H107.068ZM117.1 21V7.04H125.92V9.2H119.72V12.84H125.7V15H119.72V18.84H125.92V21H117.1ZM136.732 9.2V21H134.132V9.2H129.932V7.04H140.932V9.2H136.732ZM145.085 21V7.04H153.905V9.2H147.705V12.84H153.685V15H147.705V18.84H153.905V21H145.085ZM163.777 21.24C161.95 21.24 160.597 20.6133 159.717 19.36C158.85 18.1067 158.417 16.3267 158.417 14.02C158.417 11.7267 158.85 9.95333 159.717 8.7C160.597 7.43333 161.95 6.8 163.777 6.8C164.47 6.8 165.077 6.89333 165.597 7.08C166.13 7.26667 166.59 7.52667 166.977 7.86C167.364 8.18 167.684 8.57333 167.937 9.04C168.19 9.49333 168.39 9.99333 168.537 10.54L166.137 11.22C166.044 10.9 165.937 10.6 165.817 10.32C165.697 10.04 165.544 9.8 165.357 9.6C165.184 9.38667 164.964 9.22667 164.697 9.12C164.43 9 164.11 8.94 163.737 8.94C162.83 8.94 162.177 9.28667 161.777 9.98C161.39 10.6733 161.197 11.62 161.197 12.82V15.22C161.197 16.42 161.39 17.3667 161.777 18.06C162.177 18.7533 162.83 19.1 163.737 19.1C164.11 19.1 164.43 19.0467 164.697 18.94C164.964 18.82 165.184 18.66 165.357 18.46C165.544 18.2467 165.697 18 165.817 17.72C165.937 17.44 166.044 17.14 166.137 16.82L168.537 17.5C168.39 18.0467 168.19 18.5533 167.937 19.02C167.684 19.4733 167.364 19.8667 166.977 20.2C166.59 20.52 166.13 20.7733 165.597 20.96C165.077 21.1467 164.47 21.24 163.777 21.24ZM178.709 9.2V21H176.109V9.2H171.909V7.04H182.909V9.2H178.709ZM186.961 21V19.04H190.101V9H186.961V7.04H195.841V9H192.701V19.04H195.841V21H186.961ZM205.393 21.24C204.487 21.24 203.7 21.08 203.033 20.76C202.367 20.4267 201.813 19.9533 201.373 19.34C200.947 18.7267 200.627 17.9733 200.413 17.08C200.213 16.1867 200.113 15.1667 200.113 14.02C200.113 12.8867 200.213 11.8733 200.413 10.98C200.627 10.0733 200.947 9.31333 201.373 8.7C201.813 8.08667 202.367 7.62 203.033 7.3C203.7 6.96667 204.487 6.8 205.393 6.8C207.207 6.8 208.54 7.43333 209.393 8.7C210.247 9.96667 210.673 11.74 210.673 14.02C210.673 16.3 210.247 18.0733 209.393 19.34C208.54 20.6067 207.207 21.24 205.393 21.24ZM205.393 19.1C205.86 19.1 206.253 19.0133 206.573 18.84C206.893 18.6533 207.147 18.3933 207.333 18.06C207.533 17.7267 207.673 17.32 207.753 16.84C207.847 16.3467 207.893 15.8 207.893 15.2V12.82C207.893 11.62 207.707 10.6733 207.333 9.98C206.973 9.28667 206.327 8.94 205.393 8.94C204.46 8.94 203.807 9.28667 203.433 9.98C203.073 10.6733 202.893 11.62 202.893 12.82V15.22C202.893 16.42 203.073 17.3667 203.433 18.06C203.807 18.7533 204.46 19.1 205.393 19.1ZM217.166 10.98H216.966V21H214.726V7.04H217.946L221.606 17.06H221.806V7.04H224.046V21H220.826L217.166 10.98Z" fill="black"/>
<mask id="path-2-inside-1" fill="white">
<path fill-rule="evenodd" clip-rule="evenodd" d="M16.163 23.0222C14.5721 23.9534 12.7202 24.4872 10.7436 24.4872C8.76702 24.4872 6.91512 23.9534 5.32416 23.0222H16.163ZM17.3562 22.2117C16.677 20.5002 14.7063 16.6737 10.6622 16.6737C6.69356 16.6737 4.72162 20.3587 4.00752 22.1137C1.56359 20.1443 0 17.1266 0 13.7436C0 7.81007 4.81007 3 10.7436 3C16.6771 3 21.4872 7.81007 21.4872 13.7436C21.4872 17.1832 19.8708 20.2453 17.3562 22.2117ZM14.8131 11.4646C14.8131 13.7122 12.9911 15.5342 10.7436 15.5342C8.49601 15.5342 6.67401 13.7122 6.67401 11.4646C6.67401 9.21709 8.49601 7.39509 10.7436 7.39509C12.9911 7.39509 14.8131 9.21709 14.8131 11.4646Z"/>
</mask>
<path fill-rule="evenodd" clip-rule="evenodd" d="M16.163 23.0222C14.5721 23.9534 12.7202 24.4872 10.7436 24.4872C8.76702 24.4872 6.91512 23.9534 5.32416 23.0222H16.163ZM17.3562 22.2117C16.677 20.5002 14.7063 16.6737 10.6622 16.6737C6.69356 16.6737 4.72162 20.3587 4.00752 22.1137C1.56359 20.1443 0 17.1266 0 13.7436C0 7.81007 4.81007 3 10.7436 3C16.6771 3 21.4872 7.81007 21.4872 13.7436C21.4872 17.1832 19.8708 20.2453 17.3562 22.2117ZM14.8131 11.4646C14.8131 13.7122 12.9911 15.5342 10.7436 15.5342C8.49601 15.5342 6.67401 13.7122 6.67401 11.4646C6.67401 9.21709 8.49601 7.39509 10.7436 7.39509C12.9911 7.39509 14.8131 9.21709 14.8131 11.4646Z" fill="#004267"/>
<path d="M16.163 23.0222L16.4156 23.4537L18.007 22.5222H16.163V23.0222ZM5.32416 23.0222V22.5222H3.48018L5.07158 23.4537L5.32416 23.0222ZM17.3562 22.2117L16.8915 22.3961L17.1379 23.0171L17.6642 22.6055L17.3562 22.2117ZM4.00752 22.1137L3.6938 22.503L4.21727 22.9248L4.47065 22.3021L4.00752 22.1137ZM10.7436 24.9872C12.8113 24.9872 14.7501 24.4286 16.4156 23.4537L15.9104 22.5906C14.394 23.4783 12.629 23.9872 10.7436 23.9872V24.9872ZM5.07158 23.4537C6.73707 24.4286 8.67585 24.9872 10.7436 24.9872V23.9872C8.85818 23.9872 7.09316 23.4783 5.57674 22.5906L5.07158 23.4537ZM16.163 22.5222H5.32416V23.5222H16.163V22.5222ZM10.6622 17.1737C12.5073 17.1737 13.8866 18.0409 14.904 19.1404C15.9281 20.2472 16.563 21.5683 16.8915 22.3961L17.821 22.0272C17.4703 21.1435 16.7801 19.6956 15.638 18.4613C14.4893 17.2197 12.8611 16.1737 10.6622 16.1737V17.1737ZM4.47065 22.3021C4.81612 21.4531 5.45921 20.1564 6.47774 19.079C7.48937 18.009 8.85111 17.1737 10.6622 17.1737V16.1737C8.50463 16.1737 6.89608 17.1809 5.75107 18.3921C4.61295 19.5959 3.91302 21.0193 3.54439 21.9252L4.47065 22.3021ZM-0.5 13.7436C-0.5 17.2842 1.13714 20.4428 3.6938 22.503L4.32124 21.7243C1.99004 19.8458 0.5 16.9689 0.5 13.7436H-0.5ZM10.7436 2.5C4.53393 2.5 -0.5 7.53393 -0.5 13.7436H0.5C0.5 8.08621 5.08621 3.5 10.7436 3.5V2.5ZM21.9872 13.7436C21.9872 7.53393 16.9533 2.5 10.7436 2.5V3.5C16.401 3.5 20.9872 8.08621 20.9872 13.7436H21.9872ZM17.6642 22.6055C20.2948 20.5484 21.9872 17.3435 21.9872 13.7436H20.9872C20.9872 17.0228 19.4468 19.9421 17.0482 21.8178L17.6642 22.6055ZM10.7436 16.0342C13.2672 16.0342 15.3131 13.9883 15.3131 11.4646H14.3131C14.3131 13.436 12.715 15.0342 10.7436 15.0342V16.0342ZM6.17401 11.4646C6.17401 13.9883 8.21987 16.0342 10.7436 16.0342V15.0342C8.77215 15.0342 7.17401 13.436 7.17401 11.4646H6.17401ZM10.7436 6.89509C8.21987 6.89509 6.17401 8.94095 6.17401 11.4646H7.17401C7.17401 9.49323 8.77215 7.89509 10.7436 7.89509V6.89509ZM15.3131 11.4646C15.3131 8.94095 13.2672 6.89509 10.7436 6.89509V7.89509C12.715 7.89509 14.3131 9.49323 14.3131 11.4646H15.3131Z" fill="black" mask="url(#path-2-inside-1)"/>
<path d="M15.3393 12.3905C15.3393 12.8787 15.1357 13.3518 14.8001 13.7918C14.4646 14.2318 14.0021 14.6318 13.4987 14.9701C12.9958 15.3082 12.4562 15.5818 11.9705 15.7707C11.4815 15.9607 11.0585 16.0604 10.7861 16.0604C10.5135 16.0604 10.0851 15.9606 9.5879 15.7704C9.09402 15.5815 8.54368 15.3077 8.03004 14.9695C7.5159 14.631 7.04286 14.2308 6.69954 13.7907C6.35613 13.3506 6.14795 12.8778 6.14795 12.3905C6.14795 12.2218 6.15911 12.0943 6.17918 11.9998C6.19944 11.9044 6.22679 11.8522 6.25164 11.8243C6.28769 11.7838 6.35139 11.7616 6.52149 11.8168C6.66206 11.8625 6.83303 11.9474 7.0452 12.0527C7.08443 12.0722 7.12506 12.0923 7.16717 12.1131C7.43191 12.2436 7.74403 12.3909 8.09969 12.5091C8.31641 12.5811 8.54114 12.5432 8.75789 12.463C8.9741 12.3829 9.19937 12.254 9.42235 12.1245C9.43599 12.1165 9.44963 12.1086 9.46327 12.1007C9.67625 11.9768 9.88944 11.8527 10.1066 11.757C10.3371 11.6554 10.5634 11.5897 10.7861 11.5897C11.3189 11.5897 11.7963 11.8322 12.2567 12.0662C12.2654 12.0706 12.274 12.075 12.2827 12.0794C12.5121 12.1959 12.7407 12.3104 12.9612 12.3772C13.1838 12.4446 13.4107 12.4676 13.634 12.3886C13.9168 12.2887 14.174 12.1691 14.3967 12.0656C14.4052 12.0617 14.4136 12.0578 14.422 12.0539C14.6553 11.9455 14.8407 11.8611 14.988 11.826C15.1338 11.7913 15.1978 11.8145 15.2376 11.8619C15.2921 11.9269 15.3393 12.0763 15.3393 12.3905Z" fill="#AFDAEB" stroke="black" stroke-width="0.25"/>
<path d="M8.13904 13.2552C8.13904 13.2552 9.75138 13.586 10.7967 13.5808C11.8008 13.5757 13.3481 13.2552 13.3481 13.2552" stroke="#004267" stroke-width="0.1" stroke-linecap="round"/>
<path d="M8.13904 14.0692C8.13904 14.0692 9.75138 14.3999 10.7967 14.3947C11.8008 14.3896 13.3481 14.0692 13.3481 14.0692" stroke="#004267" stroke-width="0.1" stroke-linecap="round"/>
<path d="M8.13904 14.8831C8.13904 14.8831 9.75138 15.2138 10.7967 15.2086C11.8008 15.2035 13.3481 14.8831 13.3481 14.8831" stroke="#004267" stroke-width="0.1" stroke-linecap="round"/>
</svg>
