<svg width="428" height="61" viewBox="0 0 428 61" fill="none" xmlns="http://www.w3.org/2000/svg">
<path d="M103.956 43V34.376C103.956 28.128 106.112 25.136 108.752 25.136C110.38 25.136 111.48 25.972 111.48 28.216V43H116.936V27.292C116.936 23.024 114.472 20.472 110.336 20.472C107.608 20.472 105.144 22.188 103.56 25.048C102.592 21.836 100.084 20.472 97.356 20.472C94.496 20.472 92.604 21.924 90.976 24.388V20.824H85.52V43H90.976V34.86C90.976 28.26 93.088 25.136 95.772 25.136C97.4 25.136 98.5 25.972 98.5 28.216V43H103.956ZM129.226 27.688C129.93 25.62 131.514 25.136 133.054 25.136C135.078 25.136 136.926 25.928 136.926 28.392V29.36H133.23C127.642 29.36 123.77 32.22 123.77 36.62C123.77 41.02 126.718 43.352 130.502 43.352C133.67 43.352 135.782 42.076 137.322 40.184L137.894 43H142.382V29.756C142.382 22.672 138.334 20.472 133.054 20.472C128.522 20.472 125.31 22.98 124.606 26.632L129.226 27.688ZM129.49 36.532C129.49 34.552 130.942 33.672 133.274 33.672H136.926V34.112C136.926 36.972 134.286 38.688 131.778 38.688C130.238 38.688 129.49 37.588 129.49 36.532ZM157.064 20.472C152.752 20.472 149.98 23.508 149.98 26.94C149.98 30.372 152.048 31.912 154.468 32.924C157.152 34.068 160.012 34.464 160.012 36.312C160.012 37.94 158.956 38.688 157.284 38.688C155.128 38.688 153.632 37.192 152.84 35.036L148.484 37.368C149.584 40.096 152.664 43.352 157.284 43.352C162.08 43.352 165.16 39.964 165.16 35.96C165.16 31.208 160.188 30.24 157.152 29.14C155.832 28.656 155.04 27.952 155.04 26.984C155.04 25.752 156.008 25.136 157.064 25.136C158.296 25.136 159.748 25.752 160.76 27.072L164.016 24.08C162.652 21.924 160.056 20.472 157.064 20.472ZM171.698 11.848V43H177.154V32.528L184.986 43H191.674L182.214 31.032L191.102 20.824H184.37L177.154 29.536V11.848H171.698Z" fill="#004267"/>
<path d="M210.205 31.912C210.205 38.688 213.857 43.352 220.369 43.352C223.405 43.352 225.913 41.768 227.145 40.052V43H230.841V11.848H227.145V23.64C225.913 21.968 223.449 20.472 220.369 20.472C213.857 20.472 210.205 25.136 210.205 31.912ZM213.989 31.912C213.989 27.16 216.497 23.816 220.721 23.816C224.945 23.816 227.453 27.16 227.453 31.912C227.453 36.664 224.945 40.008 220.721 40.008C216.497 40.008 213.989 36.664 213.989 31.912ZM261.074 31.164C261.074 25.356 257.422 20.472 250.558 20.472C243.914 20.472 239.954 25.664 239.954 31.912C239.954 38.38 244.09 43.352 250.558 43.352C254.694 43.352 258.214 41.812 260.634 37.148L257.686 35.608C256.19 38.38 253.902 40.008 250.558 40.008C246.642 40.008 243.958 37.104 243.738 32.704H261.074V31.164ZM250.558 23.816C254.166 23.816 256.498 25.84 257.158 29.36H244.002C244.75 26.016 246.994 23.816 250.558 23.816ZM266.799 24.168H272.695V35.652C272.695 40.8 275.379 43.352 280.219 43.352C282.991 43.352 285.015 42.516 287.039 40.492L285.675 37.368C283.739 39.392 282.155 40.008 280.219 40.008C277.755 40.008 276.391 38.6 276.391 35.52V24.168H287.215V20.824H276.391V11.848L272.695 14.18V20.824H266.799V24.168ZM315.644 31.164C315.644 25.356 311.992 20.472 305.128 20.472C298.484 20.472 294.524 25.664 294.524 31.912C294.524 38.38 298.66 43.352 305.128 43.352C309.264 43.352 312.784 41.812 315.204 37.148L312.256 35.608C310.76 38.38 308.472 40.008 305.128 40.008C301.212 40.008 298.528 37.104 298.308 32.704H315.644V31.164ZM305.128 23.816C308.736 23.816 311.068 25.84 311.728 29.36H298.572C299.32 26.016 301.564 23.816 305.128 23.816ZM339.146 35.916C338.002 38.6 336.022 40.008 332.986 40.008C328.586 40.008 326.166 36.488 326.166 31.912C326.166 27.336 328.586 23.816 332.986 23.816C336.022 23.816 338.002 25.224 339.146 27.908L342.358 26.588C340.554 22.452 337.562 20.472 332.986 20.472C326.21 20.472 322.382 25.884 322.382 31.912C322.382 37.94 326.21 43.352 332.986 43.352C337.562 43.352 340.554 41.372 342.358 37.236L339.146 35.916ZM348.655 24.168H354.551V35.652C354.551 40.8 357.235 43.352 362.075 43.352C364.847 43.352 366.871 42.516 368.895 40.492L367.531 37.368C365.595 39.392 364.011 40.008 362.075 40.008C359.611 40.008 358.247 38.6 358.247 35.52V24.168H369.071V20.824H358.247V11.848L354.551 14.18V20.824H348.655V24.168ZM375.764 31.912C375.764 38.028 379.9 43.352 386.676 43.352C393.452 43.352 397.588 38.028 397.588 31.912C397.588 25.796 393.452 20.472 386.676 20.472C379.9 20.472 375.764 25.796 375.764 31.912ZM379.548 31.912C379.548 27.644 382.144 23.816 386.676 23.816C391.208 23.816 393.804 27.644 393.804 31.912C393.804 36.18 391.208 40.008 386.676 40.008C382.144 40.008 379.548 36.18 379.548 31.912ZM424.917 27.864C424.653 23.112 422.013 20.472 417.613 20.472C413.917 20.472 411.145 22.232 409.429 24.916V20.824H405.733V43H409.429V34.992C409.429 27.468 413.081 23.816 416.953 23.816C419.593 23.816 420.913 25.312 421.221 27.864H424.917Z" fill="black"/>
<mask id="path-2-inside-1" fill="white">
<path fill-rule="evenodd" clip-rule="evenodd" d="M47.1331 56.9091C42.6905 59.5095 37.5193 61 32 61C26.4807 61 21.3095 59.5095 16.8669 56.9091H47.1331ZM50.4649 54.6459C48.5683 49.8668 43.0653 39.1818 31.7727 39.1818C20.6908 39.1818 15.1845 49.4718 13.1905 54.3723C6.36613 48.8733 2 40.4465 2 31C2 14.4315 15.4315 1 32 1C48.5685 1 62 14.4315 62 31C62 40.6046 57.4865 49.155 50.4649 54.6459ZM43.3636 24.6364C43.3636 30.9123 38.276 36 32 36C25.724 36 20.6364 30.9123 20.6364 24.6364C20.6364 18.3604 25.724 13.2727 32 13.2727C38.276 13.2727 43.3636 18.3604 43.3636 24.6364Z"/>
</mask>
<path fill-rule="evenodd" clip-rule="evenodd" d="M47.1331 56.9091C42.6905 59.5095 37.5193 61 32 61C26.4807 61 21.3095 59.5095 16.8669 56.9091H47.1331ZM50.4649 54.6459C48.5683 49.8668 43.0653 39.1818 31.7727 39.1818C20.6908 39.1818 15.1845 49.4718 13.1905 54.3723C6.36613 48.8733 2 40.4465 2 31C2 14.4315 15.4315 1 32 1C48.5685 1 62 14.4315 62 31C62 40.6046 57.4865 49.155 50.4649 54.6459ZM43.3636 24.6364C43.3636 30.9123 38.276 36 32 36C25.724 36 20.6364 30.9123 20.6364 24.6364C20.6364 18.3604 25.724 13.2727 32 13.2727C38.276 13.2727 43.3636 18.3604 43.3636 24.6364Z" fill="#004267"/>
<path d="M47.1331 56.9091L48.6486 59.4982L58.1969 53.9091H47.1331V56.9091ZM16.8669 56.9091V53.9091H5.80309L15.3514 59.4982L16.8669 56.9091ZM50.4649 54.6459L47.6765 55.7525L49.1551 59.4785L52.3129 57.0091L50.4649 54.6459ZM13.1905 54.3723L11.3081 56.7083L14.449 59.2392L15.9693 55.503L13.1905 54.3723ZM32 64C38.0663 64 43.7588 62.3604 48.6486 59.4982L45.6176 54.32C41.6223 56.6587 36.9723 58 32 58V64ZM15.3514 59.4982C20.2412 62.3604 25.9337 64 32 64V58C27.0277 58 22.3777 56.6587 18.3824 54.32L15.3514 59.4982ZM47.1331 53.9091H16.8669V59.9091H47.1331V53.9091ZM31.7727 42.1818C36.3575 42.1818 39.81 44.3164 42.4403 47.1591C45.1108 50.0453 46.7947 53.5306 47.6765 55.7525L53.2534 53.5393C52.2385 50.982 50.2226 46.7353 46.8443 43.0842C43.4258 39.3897 38.4805 36.1818 31.7727 36.1818V42.1818ZM15.9693 55.503C16.8968 53.2234 18.6014 49.8059 21.2537 47.0003C23.8646 44.2385 27.2712 42.1818 31.7727 42.1818V36.1818C25.1924 36.1818 20.3048 39.2701 16.8936 42.8784C13.5238 46.443 11.4782 50.6207 10.4117 53.2416L15.9693 55.503ZM-1 31C-1 41.3925 3.80743 50.6642 11.3081 56.7083L15.0728 52.0363C8.92484 47.0823 5 39.5006 5 31H-1ZM32 -2C13.7746 -2 -1 12.7746 -1 31H5C5 16.0883 17.0883 4 32 4V-2ZM65 31C65 12.7746 50.2254 -2 32 -2V4C46.9117 4 59 16.0883 59 31H65ZM52.3129 57.0091C60.0303 50.9741 65 41.5666 65 31H59C59 39.6425 54.9427 47.3358 48.6169 52.2827L52.3129 57.0091ZM32 39C39.9328 39 46.3636 32.5692 46.3636 24.6364H40.3636C40.3636 29.2555 36.6191 33 32 33V39ZM17.6364 24.6364C17.6364 32.5692 24.0672 39 32 39V33C27.3809 33 23.6364 29.2555 23.6364 24.6364H17.6364ZM32 10.2727C24.0672 10.2727 17.6364 16.7035 17.6364 24.6364H23.6364C23.6364 20.0173 27.3809 16.2727 32 16.2727V10.2727ZM46.3636 24.6364C46.3636 16.7035 39.9328 10.2727 32 10.2727V16.2727C36.6191 16.2727 40.3636 20.0173 40.3636 24.6364H46.3636Z" fill="black" mask="url(#path-2-inside-1)"/>
<path d="M44.6819 27.2216C44.6819 28.5417 44.1314 29.8314 43.2073 31.0431C42.2834 32.2547 41.0058 33.361 39.6091 34.2997C38.2143 35.2371 36.7176 35.9962 35.3712 36.5196C34.012 37.048 32.8515 37.3184 32.1188 37.3184C31.3852 37.3184 30.2093 37.0475 28.8268 36.5186C27.4575 35.9947 25.9305 35.2351 24.5058 34.297C23.079 33.3577 21.7721 32.2508 20.8265 31.0388C19.8807 29.8264 19.3182 28.5381 19.3182 27.2216C19.3182 26.7559 19.3492 26.4116 19.4021 26.162C19.4559 25.9088 19.5245 25.7916 19.5696 25.7409C19.6053 25.7008 19.6979 25.612 20.1637 25.7633C20.5447 25.8871 21.0099 26.1179 21.6032 26.4124C21.7132 26.467 21.8276 26.5237 21.9466 26.5824C22.6873 26.9474 23.5664 27.3627 24.5697 27.6961C25.2214 27.9127 25.8875 27.7951 26.5076 27.5655C27.1256 27.3367 27.7658 26.9699 28.3864 26.6092C28.4239 26.5875 28.4614 26.5657 28.4988 26.5439C29.0954 26.1969 29.6838 25.8546 30.2821 25.5908C30.9157 25.3114 31.5258 25.1364 32.1188 25.1364C33.57 25.1364 34.8746 25.7992 36.1704 26.4575L36.2293 26.4875C36.8677 26.8118 37.5179 27.1379 38.1487 27.329C38.7873 27.5224 39.4565 27.5937 40.1212 27.3588C40.9181 27.0771 41.642 26.7407 42.2628 26.4521C42.287 26.4408 42.3111 26.4296 42.335 26.4185C42.9912 26.1137 43.4936 25.886 43.8868 25.7923C44.2744 25.6999 44.3777 25.7765 44.4331 25.8425C44.5478 25.9792 44.6819 26.3462 44.6819 27.2216Z" fill="#AFDAEB" stroke="black"/>
<path d="M24.7273 29.6364C24.7273 29.6364 29.2295 30.5599 32.1484 30.5453C34.9523 30.5312 39.2728 29.6364 39.2728 29.6364" stroke="#004267" stroke-width="0.5" stroke-linecap="round"/>
<path d="M24.7273 31.9091C24.7273 31.9091 29.2295 32.8327 32.1484 32.818C34.9523 32.8039 39.2728 31.9091 39.2728 31.9091" stroke="#004267" stroke-width="0.5" stroke-linecap="round"/>
<path d="M24.7273 34.1818C24.7273 34.1818 29.2295 35.1054 32.1484 35.0907C34.9523 35.0766 39.2728 34.1818 39.2728 34.1818" stroke="#004267" stroke-width="0.5" stroke-linecap="round"/>
</svg>
